<svg width="20" height="21" viewBox="0 0 20 21" fill="none" xmlns="http://www.w3.org/2000/svg">
<path d="M12.3834 4.90377L15.5783 8.09867M13.9808 3.30625C14.1843 3.06586 14.4359 2.87019 14.7197 2.73172C15.0035 2.59324 15.3132 2.51499 15.6291 2.50195C15.9451 2.48891 16.2603 2.54138 16.5546 2.656C16.849 2.77062 17.1161 2.94489 17.3389 3.16769C17.5617 3.39049 17.7353 3.65694 17.8487 3.95006C17.9621 4.24317 18.0127 4.55652 17.9973 4.87014C17.982 5.18375 17.901 5.49075 17.7595 5.77156C17.6181 6.05238 17.4193 6.30085 17.1757 6.50114L6.39298 17.2839L2 18.482L3.19808 14.089L13.9808 3.30625Z" stroke="#827E7B" stroke-width="1.5" stroke-linecap="round" stroke-linejoin="round"/>
</svg>
