<svg width="114" height="114" viewBox="0 0 114 114" fill="none" xmlns="http://www.w3.org/2000/svg">
<path d="M91.0634 29.19L92.0879 28.6209C92.4639 28.4119 92.9385 28.5523 93.119 28.9428C94.0956 31.0546 95.2769 34.6815 93.8565 36.3601C90.8791 39.8788 86.2776 35.8187 85.1949 36.9014C84.1122 37.9841 85.4657 40.4203 87.3604 41.7736C88.3078 42.4504 87.5768 44.1554 86.8189 44.4802C83.0296 46.1044 79.2402 42.315 78.428 41.5028C77.8867 40.9615 77.3454 40.4202 76.804 40.9615C76.2413 41.5241 76.5602 45.6217 77.1754 48.3831C77.2634 48.7781 77.0434 49.1791 76.6421 49.231C75.8251 49.3365 74.8437 49.2868 74.6386 49.0817C74.0972 48.5404 73.5803 43.4507 73.8267 41.2323C74.0973 38.7962 77.4524 38.7145 78.1573 39.6081C82.2156 44.7529 87.0897 44.2097 85.4657 42.5857C83.8416 40.9616 82.7589 37.7135 84.383 36.0895C86.007 34.4654 88.7136 37.1721 91.1497 35.8187C92.8495 34.8743 91.79 32.0767 90.7731 30.2995C90.551 29.9114 90.6724 29.4072 91.0634 29.19Z" fill="#D0C4BB" stroke="black" stroke-width="0.765582"/>
<path d="M80.8644 66.1342C78.7716 68.2271 70.2886 63.1373 61.9173 54.7659C53.5459 46.3945 48.4561 37.9116 50.5489 35.8187C52.6418 33.7259 61.1247 38.8156 69.4961 47.187C77.8675 55.5584 82.9573 64.0414 80.8644 66.1342Z" fill="#CBCBCB"/>
<path d="M80.8644 66.1342C78.7716 68.2271 70.2886 63.1373 61.9173 54.7659C53.5459 46.3945 48.4561 37.9116 50.5489 35.8187M80.8644 66.1342C82.9573 64.0414 77.8675 55.5584 69.4961 47.187C61.1247 38.8156 52.6418 33.7259 50.5489 35.8187M80.8644 66.1342L38.9507 84.8086C34.4636 86.8078 29.8753 82.2195 31.8745 77.7324L50.5489 35.8187" stroke="black" stroke-width="0.765582"/>
<path d="M93.4389 51.6774C81.1133 49.8203 68.9694 55.0862 64.895 57.7435L67.6017 59.9089C74.6341 55.7721 87.1656 54.7636 93.071 55.2319C93.5037 55.2662 93.8847 54.9477 93.918 54.5149L94.0743 52.4834C94.1046 52.0896 93.8295 51.7362 93.4389 51.6774Z" fill="white" stroke="black" stroke-width="0.765582"/>
<path d="M56.7744 60.4502C62.6209 66.7299 68.8645 69.4727 71.3908 70.1945L66.5186 72.3599C64.4435 71.7283 59.1563 69.3283 53.5263 63.6983C47.8963 58.0683 45.0452 52.33 44.3234 50.1646L46.4888 45.2925C47.4812 47.7285 50.9278 54.1706 56.7744 60.4502Z" fill="#D0C4BB" stroke="black" stroke-width="0.765582"/>
<path d="M45.8534 71.183C49.6632 75.2816 53.7604 77.045 55.4211 77.5026L52.1926 78.9659C50.8288 78.5644 47.3597 77.0201 43.688 73.3484C40.0162 69.6766 38.1777 65.9134 37.7175 64.4907L39.1807 61.2622C39.8175 62.8614 42.0435 67.0844 45.8534 71.183Z" fill="#D0C4BB" stroke="black" stroke-width="0.765582"/>
<path d="M37.5854 79.3099C39.8548 81.7855 42.7172 82.4395 43.7823 82.6454L41.0756 83.7281C40.2023 83.5422 38.2418 83.0596 36.0387 80.8566C33.8357 78.6535 33.1766 76.5165 32.9554 75.6079L34.0381 72.9011C34.3652 73.9156 35.316 76.8342 37.5854 79.3099Z" fill="#D0C4BB" stroke="black" stroke-width="0.765582"/>
<path d="M35.121 30.6761C35.5007 27.6374 39.0907 26.1648 40.805 26.0746C41.3464 26.0747 40.8048 27.1572 39.9928 27.4279C39.1808 27.6985 36.7448 29.052 37.0155 30.9467C37.2862 32.8414 42.6996 30.676 43.7823 33.9241C44.865 37.1722 36.4741 37.9842 37.2862 39.8789C38.0982 41.7736 45.677 40.1496 46.4891 42.5857C47.3011 45.0217 44.053 48.8112 43.241 49.0818C42.429 49.3525 41.3463 48.8112 41.0756 48.5405C40.8049 48.2698 44.5944 46.1044 45.1358 43.939C45.6771 41.7736 43.323 42.0508 39.7224 41.7738C36.2037 41.503 34.9552 39.835 35.3917 38.5257C35.933 36.9016 41.514 35.5755 41.3463 34.7361C41.0758 33.3829 34.5798 35.0069 35.121 30.6761Z" fill="#D0C4BB" stroke="black" stroke-width="0.765582"/>
<path d="M59.4809 27.9691C63.8119 32.8413 62.4583 46.1043 61.105 52.8711L59.4811 51.2472C60.0224 49.0818 61.1051 40.4203 59.7517 35.2775C58.669 31.1632 55.6916 29.052 54.3382 28.7813C54.0675 27.067 55.594 23.5964 59.4809 27.9691Z" fill="white" stroke="black" stroke-width="0.765582"/>
<path d="M80.8946 30.8965C81.3298 30.558 82.1156 30.0238 82.7201 29.5503C83.053 29.2896 83.5383 29.3041 83.7368 29.6775C83.849 29.8884 83.9498 30.1083 84.0677 30.3174C84.3427 30.8053 84.68 31.2556 84.9342 31.7558C85.0398 31.9636 85.3013 32.2837 85.0917 32.4823C84.8855 32.6776 84.5915 32.8004 84.3479 32.9402C83.7754 33.2686 83.2524 33.6894 82.6913 34.0392C82.5471 34.1291 81.8685 34.7185 81.7063 34.5563C81.5245 34.3745 81.3841 34.1335 81.2485 33.9165C80.8317 33.2496 80.3869 32.5968 79.9963 31.9133C79.8841 31.717 79.7813 31.7438 79.9399 31.6056C80.2388 31.3453 80.5824 31.1393 80.8946 30.8965Z" fill="#E65656" stroke="black" stroke-width="0.765582"/>
<path d="M75.8057 74.7457C75.4101 74.9605 74.7183 75.2764 74.1529 75.5794C73.7803 75.7792 73.3008 75.6914 73.1494 75.2967C73.0709 75.0922 73.0014 74.8828 72.9171 74.6794C72.7116 74.1835 72.4471 73.7103 72.2613 73.2072C72.184 72.9982 71.9767 72.6577 72.1809 72.5161C72.3817 72.3768 72.6551 72.3201 72.8849 72.2384C73.4247 72.0463 73.9279 71.761 74.4593 71.5474C74.5959 71.4925 75.2525 71.0828 75.3842 71.2608C75.5317 71.4604 75.6373 71.7062 75.7407 71.9292C76.0582 72.6145 76.402 73.2923 76.6946 73.9878C76.7787 74.1876 76.8729 74.1824 76.7194 74.2785C76.4302 74.4597 76.1054 74.583 75.8057 74.7457Z" fill="#D0C4BB" stroke="black" stroke-width="0.765582"/>
<path d="M89.6154 66.2223C90.141 66.0559 91.0633 65.8274 91.7946 65.593C92.1972 65.464 92.6474 65.646 92.704 66.065C92.7361 66.3018 92.7544 66.5429 92.7924 66.7799C92.881 67.333 93.0412 67.8723 93.1061 68.4297C93.133 68.6612 93.2672 69.0521 93.0017 69.1657C92.7406 69.2773 92.4223 69.2905 92.1453 69.337C91.4944 69.4465 90.8579 69.6598 90.2103 69.7932C90.0439 69.8275 89.203 70.1448 89.1071 69.9364C88.9997 69.7029 88.9516 69.4281 88.8997 69.1775C88.7401 68.4075 88.5494 67.6409 88.4202 66.8643C88.3831 66.6413 88.2774 66.6308 88.4741 66.5563C88.8447 66.4158 89.2384 66.3418 89.6154 66.2223Z" fill="#D0C4BB" stroke="black" stroke-width="0.765582"/>
<path d="M83.8622 72.4029C83.8647 72.3919 83.867 72.3809 83.8693 72.3697C83.9594 71.9251 84.3842 71.8429 84.79 72.0456C84.8537 72.0774 84.918 72.107 84.9822 72.1343C85.4371 72.3275 85.894 72.6159 86.3123 72.8822C86.5701 73.0463 87.3715 73.5031 87.3065 73.8764C87.2348 74.288 87.0835 74.6607 86.9708 75.0635C86.8517 75.4889 86.6635 75.8927 86.5442 76.319C86.508 76.4484 86.5399 76.8268 86.3539 76.8454C86.2681 76.854 86.2093 76.7787 86.1367 76.7825C86.0591 76.7866 85.6266 76.4779 85.5484 76.4131C85.2518 76.1673 84.9004 76.0342 84.5882 75.8162C84.2442 75.576 83.7181 75.4545 83.4092 75.1747C83.2266 75.0092 83.3848 74.7543 83.4315 74.5699C83.5129 74.2484 83.5128 73.8964 83.5993 73.5732C83.7024 73.1877 83.7745 72.7935 83.8622 72.4029Z" fill="#E65656" stroke="black" stroke-width="0.765582"/>
<path d="M36.9681 54.1385C36.9725 54.1182 36.9766 54.0975 36.9805 54.0766C37.0618 53.6376 37.5114 53.5178 37.9484 53.6093C37.9673 53.6132 37.9861 53.6169 38.0049 53.6204C38.4226 53.6978 38.841 53.8654 39.2241 54.021C39.4602 54.1169 40.1946 54.3642 40.1303 54.7348C40.0594 55.1436 39.9154 55.5339 39.8067 55.9439C39.6919 56.3769 39.5135 56.8055 39.3985 57.2394C39.3636 57.371 39.3887 57.7239 39.2168 57.7851C39.1375 57.8134 39.0841 57.7555 39.0171 57.7761C38.9454 57.7982 38.5497 57.6056 38.4782 57.5622C38.2074 57.3976 37.8845 57.3532 37.5988 57.2187C37.2841 57.0706 36.7999 57.0782 36.518 56.8841C36.3513 56.7693 36.5003 56.4895 36.5455 56.303C36.6244 55.9777 36.6284 55.6426 36.7119 55.3145C36.8115 54.9233 36.8826 54.5311 36.9681 54.1385Z" fill="#D0C4BB" stroke="black" stroke-width="0.765582"/>
<path d="M65.0467 40.075C65.0323 40.0551 65.0171 40.0352 65.0014 40.0153C64.7235 39.6621 64.9429 39.2624 65.3348 39.0423C65.3794 39.0173 65.423 38.9912 65.4657 38.9642C65.8609 38.7143 66.3282 38.5262 66.7577 38.3553C67.0223 38.2501 67.8054 37.8874 68.0474 38.1901C68.3143 38.5238 68.5082 38.898 68.7458 39.26C68.9968 39.6424 69.1935 40.0679 69.445 40.4511C69.5213 40.5673 69.6838 40.8582 69.5948 41.0253C69.5537 41.1025 69.5028 41.1562 69.4474 41.1836C69.3571 41.2282 69.0562 41.3205 68.9647 41.3424C68.6177 41.4255 68.3245 41.6293 67.9895 41.744C67.6206 41.8703 67.2394 42.2272 66.8604 42.2979C66.6362 42.3397 66.5338 42.0383 66.4223 41.8766C66.2279 41.5947 65.9658 41.3604 65.7729 41.0732C65.5428 40.7307 65.2891 40.4082 65.0467 40.075Z" fill="#D0C4BB" stroke="black" stroke-width="0.765582"/>
<path d="M46.4711 37.5789C46.4828 37.5926 46.4945 37.6066 46.506 37.6208C46.788 37.9692 47.2301 37.8556 47.5515 37.5432C47.5746 37.5206 47.5981 37.4986 47.6219 37.4771C47.9496 37.1806 48.2351 36.8031 48.4955 36.4556C48.656 36.2415 49.1794 35.6207 48.9473 35.3247C48.6913 34.9982 48.3803 34.728 48.0908 34.421C47.785 34.0968 47.6073 33.9784 47.3009 33.6535C47.208 33.5549 46.9689 33.3341 46.7898 33.373C46.7072 33.391 46.6444 33.4238 46.6058 33.4673C46.5595 33.5193 46.4346 33.6705 46.3548 33.778C46.3103 33.8381 46.2638 33.8972 46.2155 33.9543C46.0322 34.171 45.8863 34.4577 45.6873 34.6568C45.3717 34.9724 45.1099 35.2123 44.9561 35.5391C44.8652 35.7323 44.9464 35.7338 45.0745 35.8758C45.2978 36.1233 45.4604 36.4205 45.6891 36.668C45.9618 36.9632 46.21 37.2748 46.4711 37.5789Z" fill="#E65656" stroke="black" stroke-width="0.765582"/>
<path d="M63.3967 29.5938C63.5612 29.4292 63.8134 29.1633 64.0571 28.9072C64.3485 28.6009 64.8305 28.5988 65.1271 28.9002C65.6555 29.4372 66.2106 30.0055 66.7294 30.4969C66.7827 30.5474 66.9684 30.7874 66.871 30.8848L66.6373 31.1185L65.3953 32.3605C65.1228 32.633 64.8433 32.9106 64.5161 33.1188C64.4303 33.1734 64.3209 33.0118 64.2677 32.9586C63.8795 32.5704 63.482 32.1911 63.127 31.7722C62.906 31.5114 62.7059 31.2254 62.4668 30.9812C62.3874 30.9001 62.2538 30.8102 62.1972 30.7083C62.18 30.6774 62.563 30.3504 62.6335 30.3112C62.9278 30.1477 63.1613 29.8291 63.3967 29.5938Z" fill="#E65656" stroke="black" stroke-width="0.765582"/>
<path d="M53.176 33.4983C53.3405 33.6628 53.5927 33.9287 53.8364 34.1848C54.1278 34.4911 54.6098 34.4932 54.9064 34.1918C55.4348 33.6549 55.9899 33.0865 56.5087 32.5951C56.562 32.5446 56.7477 32.3046 56.6503 32.2072L56.4166 31.9735L55.1746 30.7315C54.9021 30.459 54.6226 30.1815 54.2954 29.9733C54.2096 29.9186 54.1002 30.0802 54.047 30.1334C53.6588 30.5216 53.2613 30.901 52.9063 31.3199C52.6853 31.5807 52.4852 31.8667 52.2461 32.1108C52.1667 32.1919 52.033 32.2819 51.9765 32.3837C51.9593 32.4147 52.3423 32.7417 52.4128 32.7809C52.7071 32.9443 52.9406 33.2629 53.176 33.4983Z" fill="#D0C4BB" stroke="black" stroke-width="0.765582"/>
</svg>
