<svg width="20" height="21" viewBox="0 0 20 21" fill="none" xmlns="http://www.w3.org/2000/svg">
<path d="M16.6663 10.4999H8.74967M14.9997 12.9999L17.4997 10.4999L14.9997 7.99992M11.6663 6.33325V5.49992C11.6663 5.05789 11.4907 4.63397 11.1782 4.32141C10.8656 4.00885 10.4417 3.83325 9.99967 3.83325H4.99967C4.55765 3.83325 4.13372 4.00885 3.82116 4.32141C3.5086 4.63397 3.33301 5.05789 3.33301 5.49992V15.4999C3.33301 15.9419 3.5086 16.3659 3.82116 16.6784C4.13372 16.991 4.55765 17.1666 4.99967 17.1666H9.99967C10.4417 17.1666 10.8656 16.991 11.1782 16.6784C11.4907 16.3659 11.6663 15.9419 11.6663 15.4999V14.6666" stroke="#827E7B" stroke-width="1.5" stroke-linecap="round" stroke-linejoin="round"/>
</svg>
