<svg width="24" height="25" viewBox="0 0 24 25" fill="none" xmlns="http://www.w3.org/2000/svg">
<path d="M15 5.49976L19 9.49976M17 3.49966C17.2547 3.19869 17.5697 2.95372 17.925 2.78034C18.2803 2.60697 18.6681 2.509 19.0636 2.49267C19.4592 2.47635 19.8538 2.54204 20.2224 2.68555C20.5909 2.82905 20.9254 3.04723 21.2043 3.32618C21.4833 3.60513 21.7006 3.93872 21.8425 4.3057C21.9845 4.67268 22.0478 5.06499 22.0286 5.45764C22.0094 5.85028 21.908 6.23465 21.7309 6.58623C21.5538 6.93781 21.3049 7.24889 21 7.49966L7.5 20.9997L2 22.4997L3.5 16.9997L17 3.49966Z" stroke="white" stroke-width="2" stroke-linecap="round" stroke-linejoin="round"/>
</svg>
