<svg width="36" height="36" viewBox="0 0 36 36" fill="none" xmlns="http://www.w3.org/2000/svg">
<circle cx="18" cy="18" r="18" fill="#E8E4E1"/>
<path d="M24.6965 15.2242C24.6815 15.0726 24.6328 14.9425 24.5505 14.8339C24.4681 14.7253 24.3548 14.6429 24.2107 14.5868C24.0665 14.5287 23.898 14.4997 23.7052 14.4997C23.5086 14.4997 23.3392 14.5278 23.1969 14.584C23.0565 14.6401 22.9489 14.7188 22.874 14.8199C22.801 14.9191 22.7645 15.0314 22.7645 15.1568C22.7607 15.3515 22.8403 15.5041 23.0031 15.6146C23.1679 15.7232 23.3944 15.8112 23.6827 15.8786L24.2023 16.0049C24.5542 16.0854 24.8566 16.1959 25.1093 16.3363C25.362 16.4767 25.5605 16.6602 25.7046 16.8867C25.8488 17.1114 25.9218 17.3791 25.9237 17.6899C25.9218 18.0399 25.832 18.3442 25.6541 18.6025C25.4781 18.8609 25.2235 19.0603 24.8903 19.2007C24.557 19.3411 24.1592 19.4113 23.6968 19.4113C23.2306 19.4113 22.8272 19.3401 22.4864 19.1979C22.1457 19.0556 21.8799 18.844 21.6889 18.5632C21.4998 18.2824 21.3997 17.9407 21.3884 17.5382H22.5482C22.5595 17.7254 22.6147 17.8846 22.7139 18.0156C22.8131 18.1448 22.9451 18.2421 23.1099 18.3077C23.2765 18.3732 23.4674 18.4059 23.6827 18.4059C23.8887 18.4059 24.0703 18.376 24.2275 18.3161C24.3848 18.2543 24.5055 18.1691 24.5898 18.0605C24.674 17.952 24.7162 17.8265 24.7162 17.6842C24.7162 17.5569 24.6787 17.4493 24.6038 17.3613C24.5308 17.2714 24.4232 17.1956 24.2809 17.1338C24.1405 17.072 23.9579 17.0131 23.7333 16.9569L23.1042 16.8025C22.5988 16.6789 22.2112 16.4898 21.9416 16.2352C21.6721 15.9787 21.5382 15.6455 21.5401 15.2355C21.5382 14.8947 21.6309 14.5933 21.8181 14.3312C22.0053 14.0673 22.2637 13.8632 22.5932 13.719C22.9226 13.573 23.2961 13.5 23.7136 13.5C24.133 13.5 24.5027 13.573 24.8229 13.719C25.1449 13.8632 25.3939 14.0663 25.5699 14.3284C25.7477 14.5887 25.8394 14.8873 25.8451 15.2242H24.6965Z" fill="#ADA8A4"/>
<path d="M20.6099 19.3298H19.5765L17.0491 15.6763H17.007V19.3298H15.8135V13.5786H16.8637L19.3715 17.2293H19.422V13.5786H20.6099V19.3298Z" fill="#ADA8A4"/>
<path d="M13.8081 15.2242C13.7931 15.0726 13.7444 14.9425 13.662 14.8339C13.5797 14.7253 13.4664 14.6429 13.3223 14.5868C13.1781 14.5287 13.0096 14.4997 12.8168 14.4997C12.6202 14.4997 12.4508 14.5278 12.3085 14.584C12.1681 14.6401 12.0604 14.7188 11.9855 14.8199C11.9125 14.9191 11.876 15.0314 11.876 15.1568C11.8723 15.3515 11.9518 15.5041 12.1147 15.6146C12.2795 15.7232 12.506 15.8112 12.7943 15.8786L13.3138 16.0049C13.6658 16.0854 13.9681 16.1959 14.2209 16.3363C14.4736 16.4767 14.6721 16.6602 14.8162 16.8867C14.9604 17.1114 15.0334 17.3791 15.0353 17.6899C15.0334 18.0399 14.9435 18.3442 14.7657 18.6025C14.5897 18.8609 14.3351 19.0603 14.0018 19.2007C13.6686 19.3411 13.2708 19.4113 12.8083 19.4113C12.3422 19.4113 11.9387 19.3401 11.598 19.1979C11.2573 19.0556 10.9914 18.844 10.8005 18.5632C10.6114 18.2824 10.5112 17.9407 10.5 17.5382H11.6598C11.671 17.7254 11.7263 17.8846 11.8255 18.0156C11.9247 18.1448 12.0567 18.2421 12.2214 18.3077C12.3881 18.3732 12.579 18.4059 12.7943 18.4059C13.0002 18.4059 13.1818 18.376 13.3391 18.3161C13.4964 18.2543 13.6171 18.1691 13.7014 18.0605C13.7856 17.952 13.8277 17.8265 13.8277 17.6842C13.8277 17.5569 13.7903 17.4493 13.7154 17.3613C13.6424 17.2714 13.5347 17.1956 13.3925 17.1338C13.252 17.072 13.0695 17.0131 12.8449 16.9569L12.2158 16.8025C11.7103 16.6789 11.3228 16.4898 11.0532 16.2352C10.7836 15.9787 10.6498 15.6455 10.6516 15.2355C10.6498 14.8947 10.7424 14.5933 10.9297 14.3312C11.1169 14.0673 11.3752 13.8632 11.7047 13.719C12.0342 13.573 12.4077 13.5 12.8252 13.5C13.2446 13.5 13.6143 13.573 13.9344 13.719C14.2565 13.8632 14.5054 14.0663 14.6814 14.3284C14.8593 14.5887 14.951 14.8873 14.9566 15.2242H13.8081Z" fill="#ADA8A4"/>
<path fill-rule="evenodd" clip-rule="evenodd" d="M7.5 16.5804C7.5 11.9788 12.2 8.25 17.9961 8.25C23.7922 8.25 28.5 11.9828 28.5 16.5843C28.5 21.1859 23.8 24.9147 18.0039 24.9147C17.3691 24.9147 16.7422 24.8711 16.1389 24.7838C16.0924 24.8164 16.0293 24.8608 15.9521 24.9151C15.0145 25.5742 12.0092 27.6872 11.7032 27.7311C11.7032 27.7311 11.5652 27.7827 11.4508 27.7153C11.3365 27.6478 11.3562 27.4693 11.3562 27.4693L12.4208 23.6413C9.46358 22.1617 7.5 19.5555 7.5 16.5804Z" stroke="#ADA8A4" stroke-width="2"/>
</svg>
