<svg width="75" height="34" viewBox="0 0 75 34" fill="none" xmlns="http://www.w3.org/2000/svg">
<g clip-path="url(#clip0_1762_5721)">
<path d="M0 34.0001V10.5867H10.2865C15.2693 10.5867 18.9959 13.2246 18.9959 18.1725V18.5005C18.9959 23.4832 15.3042 26.0863 10.2865 26.0863H5.54105V34.0001H0ZM5.54105 21.5362H9.66544C11.773 21.5362 13.2594 20.6429 13.2594 18.5005V18.1725C13.2594 16.03 11.773 15.1368 9.66544 15.1368H5.54105V21.5362Z" fill="#827E7B"/>
<path d="M21.6616 34.0001V10.5867H27.2376V34.0001H21.6616Z" fill="#827E7B"/>
<path d="M29.9033 34.0001L38.2428 21.8642L30.4616 10.5867H36.861L41.6065 17.9073L46.4218 10.5867H52.556L44.7748 21.8293L53.0864 34.0001H46.6591L41.4181 25.9537L36.0724 34.0001H29.9033Z" fill="#827E7B"/>
<path d="M54.6777 33.9443V10.5239H65.2992C70.282 10.5239 74.0016 13.1619 74.0016 18.1097V18.4377C74.0016 21.9968 72.1244 24.3417 69.1864 25.3954L74.6925 33.9373H68.5932L63.7151 26.0235H60.2188V33.9373H54.6777V33.9443ZM60.2188 21.4734H64.6712C66.7787 21.4734 68.2652 20.5802 68.2652 18.4377V18.1097C68.2652 15.9673 66.7787 15.074 64.6712 15.074H60.2188V21.4734Z" fill="#827E7B"/>
<path d="M24.4533 7.56486C26.5423 7.56486 28.2358 5.87141 28.2358 3.78243C28.2358 1.69345 26.5423 0 24.4533 0C22.3644 0 20.6709 1.69345 20.6709 3.78243C20.6709 5.87141 22.3644 7.56486 24.4533 7.56486Z" fill="#E65656"/>
</g>
<defs>
<clipPath id="clip0_1762_5721">
<rect width="74.6925" height="34" fill="white"/>
</clipPath>
</defs>
</svg>
