<svg width="88" height="44" viewBox="0 0 88 44" fill="none" xmlns="http://www.w3.org/2000/svg">
<g clip-path="url(#clip0_1659_4279)">
<path d="M7 34.0001V10.5867H17.2865C22.2693 10.5867 25.9959 13.2246 25.9959 18.1725V18.5005C25.9959 23.4832 22.3042 26.0863 17.2865 26.0863H12.5411V34.0001H7ZM12.5411 21.5362H16.6654C18.773 21.5362 20.2594 20.6429 20.2594 18.5005V18.1725C20.2594 16.03 18.773 15.1368 16.6654 15.1368H12.5411V21.5362Z" fill="#575452"/>
<path d="M28.6616 34.0001V10.5867H34.2376V34.0001H28.6616Z" fill="#575452"/>
<path d="M36.9033 34.0001L45.2428 21.8642L37.4616 10.5867H43.861L48.6065 17.9073L53.4218 10.5867H59.556L51.7748 21.8293L60.0864 34.0001H53.6591L48.4181 25.9537L43.0724 34.0001H36.9033Z" fill="#575452"/>
<path d="M61.6777 33.9443V10.5239H72.2992C77.282 10.5239 81.0016 13.1619 81.0016 18.1097V18.4377C81.0016 21.9968 79.1244 24.3417 76.1864 25.3954L81.6925 33.9373H75.5932L70.7151 26.0235H67.2188V33.9373H61.6777V33.9443ZM67.2188 21.4734H71.6712C73.7787 21.4734 75.2652 20.5802 75.2652 18.4377V18.1097C75.2652 15.9673 73.7787 15.074 71.6712 15.074H67.2188V21.4734Z" fill="#575452"/>
<path d="M31.4533 7.56486C33.5423 7.56486 35.2358 5.87141 35.2358 3.78243C35.2358 1.69345 33.5423 0 31.4533 0C29.3644 0 27.6709 1.69345 27.6709 3.78243C27.6709 5.87141 29.3644 7.56486 31.4533 7.56486Z" fill="#E65656"/>
</g>
<defs>
<clipPath id="clip0_1659_4279">
<rect width="74.6925" height="34" fill="white" transform="translate(7)"/>
</clipPath>
</defs>
</svg>
