<svg width="96" height="47" viewBox="0 0 96 47" fill="none" xmlns="http://www.w3.org/2000/svg">
<path d="M9.80193 19.9859H12.4858C15.1697 19.9859 16.1032 18.7412 16.1032 16.1352C16.1032 13.2179 15.0141 12.2455 12.6414 12.2455H9.80193V19.9859ZM2.48938 33.3663V7.22786H13.3415C20.304 7.22786 23.688 10.2618 23.688 15.7462C23.688 21.6585 20.1095 24.6924 13.536 24.6924H9.80193V33.3663H2.48938ZM29.356 33.3663V7.22786H36.7074V33.3663H29.356ZM42.0457 33.3663L49.7861 19.9081L42.6291 7.22786H50.6807L55.1927 15.5128H55.3483L59.5491 7.22786H66.745L59.6658 19.7137L67.2895 33.3663H59.2379L54.337 24.459H54.1814L49.2415 33.3663H42.0457Z" fill="#827E7B"/>
<path d="M79.7911 19.4414H82.5528C85.1588 19.4414 86.1701 18.1967 86.1701 15.7462C86.1701 13.2957 85.1199 12.2066 82.4361 12.2066H79.7911V19.4414ZM72.5564 33.3663V7.22786H83.5252C90.1376 7.22786 93.4438 9.75614 93.4438 15.3961C93.4438 18.9746 91.849 20.8028 89.1263 21.9697V22.1252L94.9608 33.3663H87.337L82.5917 23.8367H79.8689V33.3663H72.5564Z" fill="#E65656"/>
</svg>
