<svg width="214" height="19" viewBox="0 0 214 19" fill="none" xmlns="http://www.w3.org/2000/svg">
<path d="M11.8906 2.35938V11.5488C11.8906 12.571 11.6465 13.4727 11.1582 14.2539C10.6764 15.0286 9.98958 15.6309 9.09766 16.0605C8.21224 16.4837 7.19336 16.6953 6.04102 16.6953C4.87565 16.6953 3.85352 16.4837 2.97461 16.0605C2.0957 15.6309 1.41211 15.0286 0.923828 14.2539C0.442057 13.4727 0.201172 12.571 0.201172 11.5488V2.35938H3.13086V11.3047C3.13086 11.8451 3.2513 12.3268 3.49219 12.75C3.73307 13.1732 4.07161 13.5085 4.50781 13.7559C4.95052 13.9967 5.46159 14.1172 6.04102 14.1172C6.61393 14.1172 7.12174 13.9967 7.56445 13.7559C8.01367 13.5085 8.35547 13.1732 8.58984 12.75C8.82422 12.3268 8.94466 11.8451 8.95117 11.3047V2.35938H11.8906ZM19.5691 7.22266H19.6863L22.577 2.35938H25.8973L21.5906 9.42969L25.9949 16.5H22.616L19.6863 11.6367H19.5691L16.6395 16.5H13.2703L17.7039 9.42969L13.3484 2.35938H16.6883L19.5691 7.22266ZM45.9516 18.3457H43.4613V0.503906H45.9516V18.3457ZM33.598 12.125C35.2712 12.138 36.7719 12.1022 38.1 12.0176C39.4346 11.9264 40.7986 11.7669 42.1918 11.5391L42.4164 13.5508C41.0427 13.7917 39.6723 13.9577 38.3051 14.0488C36.9444 14.1335 35.3754 14.1758 33.598 14.1758H32.0063V12.125H33.598ZM40.434 8.85352H34.5746V12.9062H32.0063V6.90039H37.8949V4.01953H31.9867V2.00781H40.434V8.85352ZM61.8137 8.12109H57.0773V6.11914H61.8137V8.12109ZM54.2551 4.53711C54.2486 6.06055 54.0663 7.48958 53.7082 8.82422C53.3501 10.1589 52.8033 11.3438 52.0676 12.3789C51.3319 13.4076 50.4237 14.1921 49.343 14.7324L47.7805 12.6914C48.7635 12.2552 49.5871 11.6139 50.2512 10.7676C50.9152 9.91471 51.41 8.95768 51.7355 7.89648C52.0611 6.82878 52.2271 5.70898 52.2336 4.53711V1.88086H54.2551V4.53711ZM54.7629 4.53711C54.7629 5.70247 54.9191 6.80273 55.2316 7.83789C55.5441 8.86654 56.0227 9.78451 56.6672 10.5918C57.3117 11.3926 58.1125 12.0013 59.0695 12.418L57.5461 14.4102C56.4719 13.8828 55.5799 13.1309 54.8703 12.1543C54.1607 11.1712 53.6301 10.0384 53.2785 8.75586C52.9335 7.4668 52.7609 6.06055 52.7609 4.53711V1.88086H54.7629V4.53711ZM63.0344 18.3457H60.5637V0.503906H63.0344V18.3457ZM79.873 18.2969H77.373V0.503906H79.873V18.2969ZM71.4648 6.09961C71.4648 7.37565 71.2728 8.60612 70.8887 9.79102C70.5046 10.9759 69.9316 12.0273 69.1699 12.9453C68.4147 13.8568 67.5033 14.5371 66.4355 14.9863L65.1172 13.0625C66.0547 12.6523 66.8522 12.0762 67.5098 11.334C68.1673 10.5853 68.6589 9.75846 68.9844 8.85352C69.3164 7.94857 69.4857 7.0306 69.4922 6.09961V5.08398H71.4648V6.09961ZM71.9629 6.09961C71.9694 6.99154 72.1387 7.8737 72.4707 8.74609C72.8092 9.61198 73.3105 10.4062 73.9746 11.1289C74.6387 11.8451 75.446 12.4017 76.3965 12.7988L75.0488 14.6934C73.9811 14.2637 73.0664 13.6061 72.3047 12.7207C71.5495 11.8353 70.9766 10.8197 70.5859 9.67383C70.1953 8.52799 70.0033 7.33659 70.0098 6.09961V5.08398H71.9629V6.09961ZM75.6641 5.40625H65.7031V3.42383H75.6641V5.40625ZM71.9531 4.45898H69.4727V0.914062H71.9531V4.45898ZM92.1512 9.08789H89.1824V7.0957H92.1512V9.08789ZM97.4148 18.2969H95.0223V0.503906H97.4148V18.2969ZM93.7137 17.4766H91.3602V0.777344H93.7137V17.4766ZM86.0281 1.7832C86.8094 1.7832 87.4962 2.04362 88.0887 2.56445C88.6876 3.08529 89.1466 3.83073 89.4656 4.80078C89.7911 5.77083 89.9539 6.91016 89.9539 8.21875C89.9539 9.53385 89.7911 10.6797 89.4656 11.6562C89.1466 12.6263 88.6876 13.375 88.0887 13.9023C87.4962 14.4232 86.8094 14.6836 86.0281 14.6836C85.2469 14.6836 84.5665 14.4232 83.9871 13.9023C83.4077 13.375 82.9552 12.6263 82.6297 11.6562C82.3107 10.6797 82.1512 9.53385 82.1512 8.21875C82.1512 6.91016 82.3107 5.77083 82.6297 4.80078C82.9552 3.83073 83.4077 3.08529 83.9871 2.56445C84.5665 2.04362 85.2469 1.7832 86.0281 1.7832ZM86.0281 4.14648C85.6896 4.14648 85.4031 4.29622 85.1687 4.5957C84.9344 4.89518 84.7553 5.35091 84.6316 5.96289C84.5079 6.56836 84.4493 7.32031 84.4559 8.21875C84.4493 9.11719 84.5079 9.8724 84.6316 10.4844C84.7553 11.0898 84.9344 11.5423 85.1687 11.8418C85.4096 12.1413 85.6961 12.291 86.0281 12.291C86.3732 12.291 86.6661 12.1413 86.907 11.8418C87.1544 11.5423 87.34 11.0898 87.4637 10.4844C87.5939 9.87891 87.659 9.1237 87.659 8.21875C87.659 7.32031 87.5939 6.56836 87.4637 5.96289C87.34 5.35091 87.1544 4.89518 86.907 4.5957C86.6661 4.29622 86.3732 4.14648 86.0281 4.14648ZM111.815 3.84375H104.139V1.8125H111.815V3.84375ZM108.866 10.3867H106.385V5.91406H108.866V10.3867ZM113.289 3.04297C113.283 3.96094 113.257 4.80729 113.211 5.58203C113.166 6.35677 113.058 7.20638 112.889 8.13086L110.428 7.91602C110.604 6.98503 110.715 6.17122 110.76 5.47461C110.812 4.77799 110.845 3.97721 110.858 3.07227V2.91602V1.8125H113.289V2.91602V3.04297ZM117.635 13.8145H115.077V0.503906H117.635V13.8145ZM119.793 8.02344H116.629V5.94336H119.793V8.02344ZM118.192 17.9941H105.702V15.9824H118.192V17.9941ZM108.202 16.6172H105.702V12.6328H108.202V16.6172ZM103.084 9.42969C105.213 9.42969 107.183 9.39388 108.993 9.32227C110.809 9.25065 112.521 9.09766 114.129 8.86328L114.246 10.6602C112.599 10.9661 110.871 11.168 109.061 11.2656C107.251 11.3633 105.33 11.4121 103.299 11.4121L103.084 9.42969ZM135.177 10.5723H132.687V0.542969H135.177V10.5723ZM135.177 18.1016H123.273V11.3828H135.177V18.1016ZM125.724 16.0996H132.736V13.3555H125.724V16.0996ZM126.603 2.90625C126.596 4.03906 126.401 5.09375 126.017 6.07031C125.639 7.04688 125.063 7.89974 124.288 8.62891C123.52 9.35807 122.576 9.89844 121.456 10.25L120.226 8.28711C121.189 7.99414 121.993 7.57096 122.638 7.01758C123.289 6.46419 123.764 5.83594 124.064 5.13281C124.37 4.42318 124.526 3.68099 124.532 2.90625V1.1875H126.603V2.90625ZM127.12 2.90625C127.114 3.64844 127.26 4.35156 127.56 5.01562C127.866 5.67969 128.328 6.27539 128.946 6.80273C129.571 7.32357 130.349 7.72721 131.28 8.01367L130.07 9.92773C128.963 9.5957 128.032 9.08789 127.277 8.4043C126.528 7.71419 125.965 6.90365 125.587 5.97266C125.216 5.04167 125.03 4.01953 125.03 2.90625V1.1875H127.12V2.90625ZM147.575 11.9297C147.568 12.8542 147.419 13.7201 147.126 14.5273C146.839 15.3281 146.397 16.0345 145.798 16.6465C145.199 17.2585 144.447 17.7207 143.542 18.0332L142.321 16.2266C143.07 15.9661 143.695 15.6146 144.196 15.1719C144.704 14.7227 145.075 14.2214 145.309 13.668C145.544 13.1081 145.664 12.5286 145.671 11.9297V11.3242H147.575V11.9297ZM148.093 11.9297C148.093 12.5352 148.2 13.1211 148.415 13.6875C148.63 14.2474 148.968 14.7617 149.43 15.2305C149.893 15.6992 150.475 16.0768 151.179 16.3633L150.192 18.1992C149.281 17.8672 148.535 17.3757 147.956 16.7246C147.376 16.0801 146.957 15.3509 146.696 14.5371C146.442 13.7168 146.318 12.8477 146.325 11.9297V11.3242H148.093V11.9297ZM154.011 11.9297C154.004 12.7891 153.871 13.6322 153.61 14.459C153.35 15.2858 152.93 16.0312 152.35 16.6953C151.777 17.3594 151.058 17.8607 150.192 18.1992L149.167 16.3633C149.85 16.0508 150.423 15.6504 150.886 15.1621C151.354 14.6738 151.696 14.153 151.911 13.5996C152.132 13.0397 152.243 12.4831 152.243 11.9297V11.3242H154.011V11.9297ZM154.694 11.9297C154.688 12.5677 154.802 13.1667 155.036 13.7266C155.27 14.2865 155.638 14.7845 156.139 15.2207C156.641 15.6504 157.272 15.9857 158.034 16.2266L156.833 18.0332C155.915 17.7337 155.153 17.2812 154.548 16.6758C153.949 16.0703 153.506 15.3672 153.22 14.5664C152.933 13.7591 152.793 12.8802 152.8 11.9297V11.3242H154.694V11.9297ZM156.491 10.582H154.001V0.542969H156.491V10.582ZM146.755 1.43164C147.666 1.43815 148.493 1.6237 149.235 1.98828C149.977 2.34635 150.56 2.85091 150.983 3.50195C151.406 4.15299 151.618 4.89193 151.618 5.71875C151.618 6.52604 151.406 7.25521 150.983 7.90625C150.56 8.55078 149.977 9.05534 149.235 9.41992C148.493 9.77799 147.666 9.95703 146.755 9.95703C145.837 9.95703 145.007 9.77799 144.264 9.41992C143.529 9.05534 142.949 8.55078 142.526 7.90625C142.103 7.25521 141.891 6.52604 141.891 5.71875C141.891 4.89193 142.103 4.15299 142.526 3.50195C142.949 2.85091 143.529 2.34635 144.264 1.98828C145.007 1.6237 145.837 1.43815 146.755 1.43164ZM146.755 3.53125C146.279 3.53125 145.856 3.61914 145.485 3.79492C145.121 3.96419 144.834 4.21484 144.626 4.54688C144.424 4.87891 144.323 5.26953 144.323 5.71875C144.323 6.15495 144.424 6.53581 144.626 6.86133C144.834 7.18685 145.121 7.44401 145.485 7.63281C145.856 7.8151 146.279 7.90299 146.755 7.89648C147.217 7.90299 147.627 7.8151 147.985 7.63281C148.35 7.44401 148.633 7.18685 148.835 6.86133C149.043 6.53581 149.147 6.15495 149.147 5.71875C149.147 5.26953 149.046 4.87891 148.845 4.54688C148.643 4.21484 148.36 3.96419 147.995 3.79492C147.63 3.61914 147.217 3.53125 146.755 3.53125ZM173.046 7.32031H160.615V5.37695H173.046V7.32031ZM174.843 11.1777H158.593V9.22461H174.843V11.1777ZM163.105 6.35352H160.615V1.14844H163.105V6.35352ZM173.154 17.9062H160.459V15.8945H173.154V17.9062ZM162.959 16.4707H160.459V12.6328H162.959V16.4707ZM185.991 4.53711C185.985 6.04102 185.799 7.45703 185.435 8.78516C185.077 10.1068 184.527 11.2819 183.784 12.3105C183.049 13.3327 182.14 14.1107 181.06 14.6445L179.527 12.623C180.503 12.1803 181.323 11.5358 181.988 10.6895C182.652 9.8431 183.146 8.89583 183.472 7.84766C183.797 6.79297 183.963 5.68945 183.97 4.53711V1.88086H185.991V4.53711ZM186.45 4.53711C186.45 5.64388 186.607 6.70182 186.919 7.71094C187.232 8.72005 187.7 9.63151 188.325 10.4453C188.957 11.2526 189.735 11.8776 190.659 12.3203L189.155 14.3027C188.114 13.7884 187.241 13.0365 186.538 12.0469C185.842 11.0573 185.321 9.92448 184.976 8.64844C184.631 7.3724 184.461 6.00195 184.468 4.53711V1.88086H186.45V4.53711ZM193.941 18.2969H191.441V0.503906H193.941V18.2969ZM196.577 9.48828H193.394V7.36914H196.577V9.48828ZM211.004 11.0898H208.514V0.542969H211.004V11.0898ZM213.426 6.8125H210.262V4.75195H213.426V6.8125ZM211.004 18.1016H199.354V11.8418H211.004V18.1016ZM201.814 16.0996H208.562V13.7754H201.814V16.0996ZM199.041 8.4043C200.949 8.41081 202.492 8.38151 203.67 8.31641C204.855 8.2513 206.036 8.11784 207.215 7.91602L207.479 9.85938C206.274 10.0938 205.05 10.25 203.807 10.3281C202.57 10.4062 200.981 10.4453 199.041 10.4453H197.547V8.4043H199.041ZM205.701 6.8125H200.037V9.54688H197.547V4.94727H203.27V3.39453H197.518V1.40234H205.701V6.8125Z" fill="#827E7B"/>
</svg>
