<svg width="93" height="27" viewBox="0 0 93 27" fill="none" xmlns="http://www.w3.org/2000/svg">
<path d="M7.80193 12.9859H10.4858C13.1697 12.9859 14.1032 11.7412 14.1032 9.13517C14.1032 6.21793 13.0141 5.24551 10.6414 5.24551H7.80193V12.9859ZM0.48938 26.3663V0.227859H11.3415C18.304 0.227859 21.688 3.26179 21.688 8.7462C21.688 14.6585 18.1095 17.6924 11.536 17.6924H7.80193V26.3663H0.48938ZM27.356 26.3663V0.227859H34.7074V26.3663H27.356ZM40.0457 26.3663L47.7861 12.9081L40.6291 0.227859H48.6807L53.1927 8.51283H53.3483L57.5491 0.227859H64.745L57.6658 12.7137L65.2895 26.3663H57.2379L52.337 17.459H52.1814L47.2415 26.3663H40.0457Z" fill="#D9D2CE"/>
<path d="M77.7911 12.4414H80.5528C83.1588 12.4414 84.1701 11.1967 84.1701 8.7462C84.1701 6.29572 83.1199 5.20662 80.4361 5.20662H77.7911V12.4414ZM70.5564 26.3663V0.227859H81.5252C88.1376 0.227859 91.4438 2.75614 91.4438 8.39614C91.4438 11.9746 89.849 13.8028 87.1263 14.9697V15.1252L92.9608 26.3663H85.337L80.5917 16.8367H77.8689V26.3663H70.5564Z" fill="#E65656"/>
</svg>
