<svg width="24" height="25" viewBox="0 0 24 25" fill="none" xmlns="http://www.w3.org/2000/svg">
<path d="M12.125 12.7H7.25M13.75 9.5H7.25M17 12.3V9.34C17 7.99587 17 7.32381 16.7343 6.81042C16.5006 6.35883 16.1277 5.99168 15.6691 5.76158C15.1477 5.5 14.4651 5.5 13.1 5.5H7.9C6.53487 5.5 5.85231 5.5 5.3309 5.76158C4.87225 5.99168 4.49936 6.35883 4.26567 6.81042C4 7.32381 4 7.99587 4 9.34V17.66C4 19.0041 4 19.6762 4.26567 20.1896C4.49936 20.6412 4.87225 21.0083 5.3309 21.2384C5.85231 21.5 6.53487 21.5 7.9 21.5H10.0938" stroke="#ADA8A4" stroke-width="2" stroke-linecap="round" stroke-linejoin="round"/>
<path d="M19.4906 13.4999L21 15.0093M13 21.5L13.4817 19.7339C13.5131 19.6187 13.5288 19.5611 13.5529 19.5074C13.5743 19.4597 13.6006 19.4143 13.6314 19.3721C13.6661 19.3245 13.7083 19.2822 13.7928 19.1978L17.6922 15.2984C17.7669 15.2237 17.8043 15.1864 17.8474 15.1724C17.8853 15.1601 17.9261 15.1601 17.964 15.1724C18.007 15.1864 18.0444 15.2237 18.1191 15.2984L19.2016 16.3809C19.2763 16.4556 19.3137 16.493 19.3277 16.5361C19.34 16.574 19.34 16.6148 19.3277 16.6527C19.3137 16.6958 19.2763 16.7331 19.2016 16.8079L15.3022 20.7072C15.2178 20.7917 15.1756 20.8339 15.128 20.8686C15.0857 20.8993 15.0403 20.9257 14.9926 20.9471C14.9389 20.9712 14.8813 20.9869 14.7661 21.0183L13 21.5Z" stroke="#ADA8A4" stroke-width="1.5" stroke-linecap="round" stroke-linejoin="round"/>
</svg>
