<svg width="20" height="21" viewBox="0 0 20 21" fill="none" xmlns="http://www.w3.org/2000/svg">
<mask id="mask0_639_1792" style="mask-type:luminance" maskUnits="userSpaceOnUse" x="0" y="0" width="20" height="21">
<path d="M20 0.5H0V20.5H20V0.5Z" fill="white"/>
</mask>
<g mask="url(#mask0_639_1792)">
<path d="M19.6 10.7274C19.6 10.0183 19.5364 9.33648 19.4182 8.68188H10V12.5501H15.3818C15.15 13.8001 14.4455 14.8592 13.3864 15.5683V18.0774H16.6182C18.5091 16.3365 19.6 13.7728 19.6 10.7274Z" fill="#4285F4"/>
<path d="M10 20.4999C12.7 20.4999 14.9636 19.6044 16.6181 18.0772L13.3863 15.5681C12.4909 16.1681 11.3454 16.5226 10 16.5226C7.3954 16.5226 5.1909 14.7635 4.4045 12.3999H1.0636V14.9908C2.7091 18.259 6.0909 20.4999 10 20.4999Z" fill="#34A853"/>
<path d="M4.4045 12.3999C4.2045 11.7999 4.0909 11.159 4.0909 10.4999C4.0909 9.84083 4.2045 9.19993 4.4045 8.59993V6.00903H1.0636C0.3864 7.35903 0 8.88633 0 10.4999C0 12.1135 0.3864 13.6408 1.0636 14.9908L4.4045 12.3999Z" fill="#FBBC04"/>
<path d="M10 4.4773C11.4681 4.4773 12.7863 4.9818 13.8227 5.9727L16.6909 3.1045C14.9591 1.4909 12.6954 0.5 10 0.5C6.0909 0.5 2.7091 2.7409 1.0636 6.0091L4.4045 8.6C5.1909 6.2364 7.3954 4.4773 10 4.4773Z" fill="#E94235"/>
</g>
</svg>
