<svg width="32" height="32" viewBox="0 0 32 32" fill="none" xmlns="http://www.w3.org/2000/svg">
<g clip-path="url(#clip0_547_908)">
<path d="M5.94568 5.61083C6.94034 6.41883 7.31368 6.35749 9.18301 6.23216L26.803 5.17483C27.1763 5.17483 26.8657 4.80149 26.7417 4.74016L23.8137 2.62416C23.2537 2.18949 22.5057 1.69082 21.0737 1.81482L4.01368 3.06016C3.39234 3.12149 3.26701 3.43349 3.51501 3.68149L5.94568 5.61083ZM7.00301 9.71749V28.2562C7.00301 29.2522 7.50034 29.6255 8.62168 29.5628L27.9857 28.4428C29.107 28.3815 29.2323 27.6962 29.2323 26.8868V8.47216C29.2323 7.66416 28.9217 7.22816 28.235 7.28949L7.99901 8.47216C7.25234 8.53483 7.00301 8.90816 7.00301 9.71616V9.71749ZM26.119 10.7108C26.243 11.2708 26.119 11.8308 25.559 11.8948L24.6257 12.0815V25.7668C23.815 26.2028 23.0683 26.4522 22.4457 26.4522C21.4483 26.4522 21.199 26.1402 20.4523 25.2082L14.3497 15.6268V24.8962L16.2803 25.3335C16.2803 25.3335 16.2803 26.4535 14.723 26.4535L10.427 26.7015C10.303 26.4535 10.427 25.8308 10.863 25.7068L11.983 25.3962V13.1388L10.4297 13.0135C10.3043 12.4535 10.6163 11.6455 11.487 11.5828L16.095 11.2722L22.447 20.9775V12.3908L20.827 12.2055C20.703 11.5202 21.2003 11.0228 21.823 10.9615L26.119 10.7108ZM2.58168 1.38016L20.3283 0.0734909C22.507 -0.113176 23.0683 0.0108242 24.4377 1.00682L30.103 4.98816C31.0363 5.67216 31.3483 5.85883 31.3483 6.60549V28.4428C31.3483 29.8108 30.851 30.6215 29.1083 30.7442L8.49768 31.9895C7.19101 32.0522 6.56701 31.8655 5.88168 30.9935L1.70968 25.5802C0.96301 24.5842 0.652344 23.8388 0.652344 22.9668V3.55616C0.652344 2.43749 1.15101 1.50282 2.58168 1.38016Z" fill="#ADA8A4"/>
</g>
<defs>
<clipPath id="clip0_547_908">
<rect width="32" height="32" fill="white"/>
</clipPath>
</defs>
</svg>
