<svg width="20" height="21" viewBox="0 0 20 21" fill="none" xmlns="http://www.w3.org/2000/svg">
<path fill-rule="evenodd" clip-rule="evenodd" d="M0 9.1368C0 4.75439 4.47615 1.20312 9.99624 1.20312C15.5163 1.20312 20 4.75817 20 9.14058C20 13.523 15.5238 17.0743 10.0038 17.0743C9.39917 17.0743 8.8021 17.0327 8.22756 16.9496C8.18328 16.9806 8.1231 17.0229 8.04957 17.0746C7.15667 17.7024 4.29444 19.7147 4.003 19.7566C4.003 19.7566 3.87157 19.8057 3.76267 19.7415C3.65377 19.6773 3.67255 19.5073 3.67255 19.5073L4.68644 15.8615C1.87007 14.4524 0 11.9703 0 9.1368Z" fill="#181600"/>
</svg>
