<svg width="32" height="30" viewBox="0 0 32 30" fill="none" xmlns="http://www.w3.org/2000/svg">
<path d="M12.6114 11.3318L13.5306 13.9673H11.6921L12.6114 11.3318Z" fill="#ADA8A4"/>
<path fill-rule="evenodd" clip-rule="evenodd" d="M0 12.8189C0 5.80703 7.16185 0.125 15.994 0.125C24.8261 0.125 32 5.81307 32 12.8249C32 19.8368 24.8382 25.5188 16.006 25.5188C15.0387 25.5188 14.0834 25.4523 13.1641 25.3193C13.0932 25.369 12.997 25.4367 12.8793 25.5194C11.4507 26.5238 6.8711 29.7435 6.40481 29.8106C6.40481 29.8106 6.19452 29.8891 6.02028 29.7864C5.84604 29.6836 5.87608 29.4116 5.87608 29.4116L7.49831 23.5785C2.99211 21.3238 0 17.3524 0 12.8189ZM7.14681 17.2435C7.14782 17.2435 7.14883 17.2435 7.14984 17.2435H7.14383C7.14483 17.2435 7.14581 17.2435 7.14681 17.2435ZM6.22457 16.3549C6.22457 16.8436 6.6375 17.2419 7.14681 17.2435C7.65017 17.2419 8.06911 16.8375 8.06911 16.3549V10.8361H9.51109C10.0038 10.8361 10.4123 10.4311 10.4123 9.92939C10.4123 9.42768 10.0098 9.02269 9.51109 9.02269H4.78259C4.28991 9.02269 3.88135 9.42768 3.88135 9.92939C3.88135 10.4311 4.2839 10.8361 4.78259 10.8361H6.22457V16.3549ZM14.4739 16.8204C14.564 17.0742 14.8584 17.2314 15.243 17.2314C15.4473 17.2314 15.6515 17.1951 15.8318 17.1105C16.0841 17.0017 16.3305 16.6692 16.0481 15.7928L13.843 9.94753C13.6928 9.50022 13.2122 9.01664 12.6114 9.02873C12.0105 9.04082 11.5359 9.50022 11.3797 9.94753L9.17463 15.7928C8.89224 16.6692 9.13858 16.9896 9.39092 17.1105C9.57718 17.1891 9.77545 17.2314 9.97973 17.2314C10.3643 17.2314 10.6587 17.0742 10.7488 16.8204L11.2054 15.6114H14.0173L14.4739 16.8204ZM16.6489 16.2642C16.6489 16.7297 17.0515 17.1105 17.5321 17.1105L20.4942 17.0924C20.9809 17.0924 21.3774 16.7116 21.3774 16.2461C21.3774 15.7807 20.9748 15.3999 20.4942 15.3999H18.5355V9.94753C18.5355 9.43977 18.1149 9.01664 17.5922 9.01664C17.0695 9.01664 16.6489 9.43373 16.6489 9.94753V16.2642ZM21.7319 9.95357V16.3005C21.7319 17.535 23.5824 17.4885 23.5824 16.2824V14.2574L23.9009 13.937L26.0638 16.8204C26.3542 17.2032 26.9501 17.3039 27.3556 17.0017C27.767 16.7132 27.841 16.1011 27.5359 15.7081L25.2647 12.6858L27.3797 10.5701C27.6989 10.2433 27.6194 9.72326 27.3136 9.41559C26.988 9.08807 26.4504 9.06298 26.166 9.3491L23.5824 11.9483V9.95357C23.5824 9.44582 23.1619 9.02269 22.6572 9.02269C22.1525 9.02269 21.7319 9.43977 21.7319 9.95357Z" fill="#ADA8A4"/>
</svg>
